# File created by Blade
# Date/Time:  Wed Apr 08 17:16:55 2015
#---------------------------------------------------------
:version 1.10
:name HOM
:units
  mass 1.0
  length 1.000000
  angle deg
:documentation
     Acclaim Skeleton File
:root
   axis xyz
   order TX TY TZ RX RY RZ
   position 0.000000 0.000000 0.000000
   orientation 0 0 0
:bonedata
   begin
      id 1
      name Spine_dum
      direction 0.000000 1.000000 0.000000
      length 5.893853
      axis 0.0 0.0 0.0 xyz
   end
   begin
      id 2
      name LeftUpLeg_dum
      direction 1.000000 0.000000 0.000000
      length 3.697939
      axis 0.0 0.0 0.0 xyz
   end
   begin
      id 3
      name RightUpLeg_dum
      direction -1.000000 0.000000 0.000000
      length 3.697939
      axis 0.0 0.0 0.0 xyz
   end
   begin
      id 4
      name Spine
      direction 0.000000 1.000000 0.000000
      length 0.000000
      axis 0.0 0.0 0.0 xyz
      dof rx ry rz
   end
   begin
      id 5
      name Spine_dum1
      direction 0.000000 1.000000 0.000000
      length 16.447146
      axis 0.0 0.0 0.0 xyz
   end
   begin
      id 6
      name Spine_dum2
      direction 0.000000 1.000000 0.000000
      length 10.900383
      axis 0.0 0.0 0.0 xyz
   end
   begin
      id 7
      name Spine_dum3
      direction 0.000000 1.000000 0.000000
      length 10.900383
      axis 0.0 0.0 0.0 xyz
   end
   begin
      id 8
      name Head
      direction 0.000000 1.000000 0.000000
      length 4.527550
      axis 0.0 0.0 0.0 xyz
      dof rx ry rz
   end
   begin
      id 9
      name LeftShoulder
      direction 1.000000 0.000000 0.000000
      length 8.219464
      axis 0.0 0.0 -90.0 xyz
      dof rx ry rz
   end
   begin
      id 10
      name LeftArm
      direction 1.000000 0.000000 0.000000
      length 11.094937
      axis 0.0 0.0 -90.0 xyz
      dof rx ry rz
   end
   begin
      id 11
      name LeftForeArm
      direction 1.000000 0.000000 0.000000
      length 9.103875
      axis 0.0 0.0 -90.0 xyz
      dof ry rz rx
   end
   begin
      id 12
      name LeftHand
      direction 0.000000 0.000000 0.000000
      length 0.000000
      axis 0.0 0.0 -90.0 xyz
      dof rx ry rz
   end
   begin
      id 13
      name LeftHand_dum1
      direction 0.000000 0.000000 0.000000
      length 0.000000
      axis 0.0 0.0 -90.0 xyz
   end
   begin
      id 14
      name LeftHand_dum2
      direction 1.000000 0.000000 0.000000
      length 3.937000
      axis 0.0 0.0 -90.0 xyz
   end
   begin
      id 15
      name LeftHandThumb1
      direction 0.000000 0.000000 1.000000
      length 3.937000
      axis 0.0 0.0 -90.0 xyz
      dof rx rz ry
   end
   begin
      id 16
      name RightShoulder
      direction -1.000000 0.000000 0.000000
      length 8.219464
      axis 0.0 0.0 90.0 xyz
      dof rx ry rz
   end
   begin
      id 17
      name RightArm
      direction -1.000000 0.000000 0.000000
      length 11.094937
      axis 0.0 0.0 90.0 xyz
      dof rx ry rz
   end
   begin
      id 18
      name RightForeArm
      direction -1.000000 0.000000 0.000000
      length 9.103875
      axis 0.0 0.0 90.0 xyz
      dof ry rz rx
   end
   begin
      id 19
      name RightHand
      direction 0.000000 0.000000 0.000000
      length 0.000000
      axis 0.0 0.0 90.0 xyz
      dof rx ry rz
   end
   begin
      id 20
      name RightHand_dum1
      direction 0.000000 0.000000 0.000000
      length 0.000000
      axis 0.0 0.0 90.0 xyz
   end
   begin
      id 21
      name RightHand_dum2
      direction -1.000000 0.000000 0.000000
      length 3.937000
      axis 0.0 0.0 90.0 xyz
   end
   begin
      id 22
      name RightHandThumb1
      direction 0.000000 0.000000 1.000000
      length 3.937000
      axis 0.0 0.0 90.0 xyz
      dof rx rz ry
   end
   begin
      id 23
      name LeftUpLeg
      direction 0.000000 -1.000000 0.000000
      length 16.181467
      axis 0.0 0.0 0.0 xyz
      dof rx ry rz
   end
   begin
      id 24
      name LeftLeg
      direction 0.000000 -1.000000 0.000000
      length 16.501392
      axis 0.0 0.0 0.0 xyz
      dof rx ry rz
   end
   begin
      id 25
      name LeftFoot
      direction 0.000000 -0.258819 0.965926
      length 6.408245
      axis 15.0 0.0 0.0 xyz
      dof rx ry rz
   end
   begin
      id 26
      name LeftToeBase
      direction 0.000000 0.000000 1.000000
      length 2.952750
      axis 0.0 0.0 0.0 xyz
      dof rx ry rz
   end
   begin
      id 27
      name RightUpLeg
      direction 0.000000 -1.000000 0.000000
      length 16.181467
      axis 0.0 0.0 0.0 xyz
      dof rx ry rz
   end
   begin
      id 28
      name RightLeg
      direction 0.000000 -1.000000 0.000000
      length 16.501392
      axis 0.0 0.0 0.0 xyz
      dof rx ry rz
   end
   begin
      id 29
      name RightFoot
      direction 0.000000 -0.258819 0.965926
      length 6.408245
      axis 15.0 0.0 0.0 xyz
      dof rx ry rz
   end
   begin
      id 30
      name RightToeBase
      direction 0.000000 0.000000 1.000000
      length 2.952750
      axis 0.0 0.0 0.0 xyz
      dof rx ry rz
   end
:hierarchy
   begin
      root Spine_dum LeftUpLeg_dum RightUpLeg_dum
      Spine_dum Spine
      LeftUpLeg_dum LeftUpLeg
      RightUpLeg_dum RightUpLeg
      Spine Spine_dum1 Spine_dum2 Spine_dum3
      Spine_dum1 Head
      Spine_dum2 LeftShoulder
      Spine_dum3 RightShoulder
      LeftShoulder LeftArm
      LeftArm LeftForeArm
      LeftForeArm LeftHand
      LeftHand LeftHand_dum1 LeftHand_dum2
      LeftHand_dum1 LeftHandThumb1
      RightShoulder RightArm
      RightArm RightForeArm
      RightForeArm RightHand
      RightHand RightHand_dum1 RightHand_dum2
      RightHand_dum1 RightHandThumb1
      LeftUpLeg LeftLeg
      LeftLeg LeftFoot
      LeftFoot LeftToeBase
      RightUpLeg RightLeg
      RightLeg RightFoot
      RightFoot RightToeBase
   end

# File created by Blade
# Date/Time:  Wed Apr 08 17:17:01 2015
# Frame Rate: 120.000 fps
#------------------------------------------------------
:FULLY-SPECIFIED
:DEGREES
559
root 4.467617 36.105866 4.416837 -8.816707 -18.215542 -4.683562
Spine 13.630309 2.028281 12.006757
Head 19.453450 15.791628 5.494222
LeftShoulder -5.635087 16.921692 15.355816
LeftArm 17.540504 25.913214 -74.249416
LeftForeArm 24.224984 0.000000 22.274473
LeftHand -8.458854 -0.000000 -19.299376
LeftHandThumb1 -26.253704 0.000000 33.147579
RightShoulder -23.690629 -48.600670 17.415240
RightArm 62.928306 -20.050607 43.728931
RightForeArm 31.927302 -0.000000 14.891065
RightHand -5.443957 -0.000000 16.718691
RightHandThumb1 -24.326973 -0.000000 -32.862282
LeftUpLeg 7.748036 0.487236 -1.713633
LeftLeg 17.248099 -0.000000 -0.000000
LeftFoot -16.680567 -3.135758 -5.018007
LeftToeBase 13.858701 -0.000000 -0.000000
RightUpLeg -54.249453 10.545577 1.486746
RightLeg 156.625026 -0.000000 -0.000000
RightFoot 38.296548 9.429667 14.486613
RightToeBase -8.719470 -0.000000 0.000000
560
root 4.471373 36.102375 4.407175 -8.590240 -18.362588 -4.698065
Spine 13.427723 2.064769 12.012988
Head 19.682127 15.650128 5.371025
LeftShoulder -5.673364 16.893046 15.261685
LeftArm 17.689266 26.014966 -74.151973
LeftForeArm 24.395441 -0.000000 22.292134
LeftHand -8.512693 -0.000000 -19.453301
LeftHandThumb1 -26.253704 0.000000 33.147579
RightShoulder -23.768509 -48.674601 17.502244
RightArm 62.891812 -20.078134 43.663593
RightForeArm 31.964737 -0.000000 14.779101
RightHand -5.407020 0.000000 16.856185
RightHandThumb1 -24.326973 -0.000000 -32.862282
LeftUpLeg 7.455528 0.490650 -1.714967
LeftLeg 17.385204 -0.000000 -0.000000
LeftFoot -16.725923 -3.023049 -4.989562
LeftToeBase 13.742411 -0.000000 -0.000000
RightUpLeg -53.977911 10.675789 1.402106
RightLeg 156.579483 -0.000000 -0.000000
RightFoot 38.399546 9.583790 14.682129
RightToeBase -8.602899 -0.000000 0.000000
561
root 4.480532 36.095907 4.403664 -8.405905 -18.511266 -4.656549
Spine 13.254144 2.086461 11.972063
Head 19.845960 15.567598 5.205548
LeftShoulder -5.689161 16.883087 15.181403
LeftArm 17.725090 25.903370 -74.188884
LeftForeArm 24.577561 -0.000000 22.373425
LeftHand -8.441547 -0.000000 -19.563091
LeftHandThumb1 -26.253704 0.000000 33.147579
RightShoulder -23.830616 -48.713282 17.541563
RightArm 62.867998 -20.165377 43.534925
RightForeArm 32.029948 -0.000000 14.710614
RightHand -5.543505 -0.000000 16.924203
RightHandThumb1 -24.326973 -0.000000 -32.862282
LeftUpLeg 7.230587 0.437595 -1.809512
LeftLeg 17.443300 -0.000000 -0.000000
LeftFoot -16.774854 -2.817110 -5.034204
LeftToeBase 13.709232 -0.000000 -0.000000
RightUpLeg -53.751277 10.689536 1.362056
RightLeg 156.582641 -0.000000 -0.000000
RightFoot 38.360959 9.583640 14.562740
RightToeBase -8.825070 -0.000000 0.000000
562
root 4.490297 36.088957 4.398805 -8.219506 -18.682055 -4.617322
Spine 13.103039 2.098045 11.938709
Head 19.945293 15.534073 4.985874
LeftShoulder -5.720387 16.897661 15.095604
LeftArm 17.739971 25.714996 -74.274137
LeftForeArm 24.628122 0.000000 22.480175
LeftHand -8.505183 0.000000 -19.554938
LeftHandThumb1 -26.253704 0.000000 33.147579
RightShoulder -23.816921 -48.691056 17.495526
RightArm 62.780362 -20.275084 43.491816
RightForeArm 31.917235 -0.000000 14.658131
RightHand -5.543364 0.000000 16.948614
RightHandThumb1 -24.326973 -0.000000 -32.862282
LeftUpLeg 7.010073 0.370998 -1.911026
LeftLeg 17.495518 -0.000000 -0.000000
LeftFoot -16.822263 -2.560238 -5.026980
LeftToeBase 13.576177 -0.000000 -0.000000
RightUpLeg -53.550937 10.746658 1.291461
RightLeg 156.573718 -0.000000 -0.000000
RightFoot 38.395959 9.507771 14.734867
RightToeBase -7.814984 -0.000000 0.000000
563
root 4.500451 36.080638 4.392524 -8.051138 -18.854276 -4.566457
Spine 12.984215 2.089053 11.891185
Head 19.968952 15.561950 4.757402
LeftShoulder -5.742423 16.913187 15.027683
LeftArm 17.716960 25.464084 -74.407673
LeftForeArm 24.575696 -0.000000 22.612199
LeftHand -8.496546 -0.000000 -19.542889
LeftHandThumb1 -26.253704 0.000000 33.147579
RightShoulder -23.746827 -48.635328 17.360114
RightArm 62.730208 -20.437185 43.491328
RightForeArm 31.852564 -0.000000 14.526451
RightHand -5.531500 -0.000000 16.892972
RightHandThumb1 -24.326973 -0.000000 -32.862282
LeftUpLeg 6.813625 0.283143 -2.030012
LeftLeg 17.529513 -0.000000 -0.000000
LeftFoot -16.873223 -2.263837 -5.007963
LeftToeBase 13.514213 -0.000000 -0.000000
RightUpLeg -53.370768 10.797146 1.168887
RightLeg 156.562381 -0.000000 -0.000000
RightFoot 38.373535 9.493597 14.792670
RightToeBase -7.665959 -0.000000 0.000000
564
root 4.511343 36.071001 4.386507 -7.885241 -19.013276 -4.497084
Spine 12.868407 2.057657 11.821721
Head 19.942146 15.636490 4.525268
LeftShoulder -5.776007 16.916250 14.976959
LeftArm 17.717733 25.282839 -74.532259
LeftForeArm 24.352422 -0.000000 22.689401
LeftHand -8.558056 -0.000000 -19.446700
LeftHandThumb1 -26.253704 0.000000 33.147579
RightShoulder -23.683971 -48.578754 17.223431
RightArm 62.685734 -20.591979 43.551639
RightForeArm 31.750228 -0.000000 14.401986
RightHand -5.574856 -0.000000 16.735468
RightHandThumb1 -24.326973 -0.000000 -32.862282
LeftUpLeg 6.609372 0.213710 -2.160919
LeftLeg 17.562260 -0.000000 -0.000000
LeftFoot -16.934082 -2.012987 -5.040496
LeftToeBase 13.519599 -0.000000 -0.000000
RightUpLeg -53.223589 10.827096 1.025440
RightLeg 156.543970 -0.000000 -0.000000
RightFoot 38.332574 9.371212 14.856611
RightToeBase -7.564321 -0.000000 0.000000
565
root 4.523825 36.061192 4.380420 -7.773067 -19.153110 -4.403820
Spine 12.828578 1.996584 11.712538
Head 19.841265 15.726510 4.318744
LeftShoulder -5.849439 16.895173 14.967609
LeftArm 17.762852 25.173090 -74.663272
LeftForeArm 23.955278 -0.000000 22.697097
LeftHand -8.516679 -0.000000 -19.250049
LeftHandThumb1 -26.253704 0.000000 33.147579
RightShoulder -23.662453 -48.570954 17.145848
RightArm 62.722574 -20.701443 43.565359
RightForeArm 31.783824 0.000000 14.301721
RightHand -5.558438 -0.000000 16.420944
RightHandThumb1 -24.326973 -0.000000 -32.862282
LeftUpLeg 6.446281 0.155064 -2.312937
LeftLeg 17.599540 -0.000000 -0.000000
LeftFoot -16.979128 -1.764950 -5.021885
LeftToeBase 13.434097 -0.000000 -0.000000
RightUpLeg -53.040457 10.848704 0.827913
RightLeg 156.534716 -0.000000 -0.000000
RightFoot 38.188417 9.365440 14.790554
RightToeBase -7.690846 -0.000000 0.000000
566
root 4.533564 36.052198 4.377147 -7.690135 -19.302382 -4.304369
Spine 12.809736 1.980256 11.600116
Head 19.751849 15.780686 4.168202
LeftShoulder -5.876160 16.883555 14.970526
LeftArm 17.830187 25.092396 -74.753004
LeftForeArm 23.647215 -0.000000 22.757058
LeftHand -8.516108 -0.000000 -19.087850
LeftHandThumb1 -26.253704 0.000000 33.147579
RightShoulder -23.638661 -48.576874 17.099252
RightArm 62.702016 -20.711164 43.754881
RightForeArm 31.640257 -0.000000 14.122341
RightHand -5.611482 -0.000000 16.341618
RightHandThumb1 -24.326973 -0.000000 -32.862282
LeftUpLeg 6.330332 0.144589 -2.454497
LeftLeg 17.606021 -0.000000 -0.000000
LeftFoot -17.010352 -1.567184 -5.015985
LeftToeBase 13.431613 -0.000000 -0.000000
RightUpLeg -52.813907 10.854304 0.690791
RightLeg 156.504070 -0.000000 -0.000000
RightFoot 38.079693 9.241155 14.693204
RightToeBase -8.497679 -0.000000 0.000000
567
root 4.543068 36.043855 4.379184 -7.646599 -19.483909 -4.188483
Spine 12.827288 2.018814 11.471400
Head 19.660562 15.794070 4.090408
LeftShoulder -5.894345 16.879267 15.012476
LeftArm 17.941698 25.105025 -74.832790
LeftForeArm 23.378069 -0.000000 22.828842
LeftHand -8.594269 0.000000 -18.946360
LeftHandThumb1 -26.253704 0.000000 33.147579
RightShoulder -23.692776 -48.628600 17.165455
RightArm 62.726450 -20.665179 43.871108
RightForeArm 31.478997 -0.000000 13.975220
RightHand -5.753274 -0.000000 16.232688
RightHandThumb1 -24.326973 -0.000000 -32.862282
LeftUpLeg 6.276963 0.197537 -2.596631
LeftLeg 17.575785 -0.000000 -0.000000
LeftFoot -17.015572 -1.415068 -4.994336
LeftToeBase 13.308404 -0.000000 -0.000000
RightUpLeg -52.518348 10.926408 0.525063
RightLeg 156.479844 -0.000000 -0.000000
RightFoot 37.937790 9.348810 14.513774
RightToeBase -9.084961 -0.000000 0.000000
568
root 4.547026 36.036352 4.382745 -7.624197 -19.670753 -4.089364
Spine 12.860848 2.089179 11.349605
Head 19.605698 15.756163 4.071931
LeftShoulder -5.874028 16.850584 15.064381
LeftArm 18.040302 25.117002 -74.894330
LeftForeArm 23.189122 -0.000000 22.912486
LeftHand -8.556517 -0.000000 -18.819985
LeftHandThumb1 -26.253704 0.000000 33.147579
RightShoulder -23.594936 -48.640456 17.141069
RightArm 62.571032 -20.509206 44.341009
RightForeArm 31.145524 0.000000 13.721577
RightHand -5.915825 -0.000000 16.442644
RightHandThumb1 -24.326973 -0.000000 -32.862282
LeftUpLeg 6.254376 0.306290 -2.695276
LeftLeg 17.543611 -0.000000 -0.000000
LeftFoot -17.033436 -1.339028 -4.993158
LeftToeBase 13.327556 -0.000000 -0.000000
RightUpLeg -52.185593 10.995388 0.441973
RightLeg 156.448979 -0.000000 -0.000000
RightFoot 37.891562 9.413293 14.175555
RightToeBase -9.640679 -0.000000 0.000000
